<svg xmlns="http://www.w3.org/2000/svg" width="512" height="512" viewBox="0 0 512 512">
  <defs>
    <filter id="glow" x="-50%" y="-50%" width="200%" height="200%">
      <feGaussianBlur stdDeviation="4" result="blur"/>
      <feMerge>
        <feMergeNode in="blur"/>
        <feMergeNode in="SourceGraphic"/>
      </feMerge>
    </filter>
    <style>
      .s1 { stroke: #f3a6c6; stroke-width: 8; stroke-linecap: round; stroke-linejoin: round; filter:url(#glow); }
      .s2 { stroke: #d8b45b; stroke-width: 6; stroke-linecap: round; stroke-linejoin: round; filter:url(#glow); }
    </style>
  </defs>
  <g fill="none">
        <circle cx="256" cy="256" r="216" class="s1" /><circle cx="256" cy="256" r="178" class="s1" opacity="0.90"/><circle cx="256" cy="256" r="121" class="s2" opacity="0.85"/>
    <path d="M 472.00 254.66 L 448.00 254.81" class="s1" opacity="0.56"/><path d="M 464.36 312.95 L 441.21 306.63" class="s1" opacity="0.57"/><path d="M 443.18 363.80 L 422.38 351.82" class="s1" opacity="0.62"/><path d="M 406.93 410.52 L 390.16 393.35" class="s1" opacity="0.58"/><path d="M 358.71 446.02 L 347.30 424.90" class="s1" opacity="0.56"/><path d="M 317.30 463.12 L 310.48 440.11" class="s1" opacity="0.71"/><path d="M 249.73 471.91 L 250.42 447.92" class="s1" opacity="0.76"/><path d="M 196.05 463.51 L 202.71 440.46" class="s1" opacity="0.58"/><path d="M 151.41 444.99 L 163.03 423.99" class="s1" opacity="0.61"/><path d="M 105.69 411.13 L 122.39 393.89" class="s1" opacity="0.58"/><path d="M 70.22 366.19 L 90.86 353.94" class="s1" opacity="0.64"/><path d="M 47.96 314.11 L 71.08 307.66" class="s1" opacity="0.74"/><path d="M 40.04 251.67 L 64.04 252.15" class="s1" opacity="0.57"/><path d="M 47.43 199.82 L 70.61 206.06" class="s1" opacity="0.72"/><path d="M 66.00 153.26 L 87.11 164.67" class="s1" opacity="0.78"/><path d="M 103.88 102.65 L 120.78 119.69" class="s1" opacity="0.65"/><path d="M 146.93 69.56 L 159.05 90.28" class="s1" opacity="0.77"/><path d="M 200.46 47.26 L 206.63 70.46" class="s1" opacity="0.65"/><path d="M 261.87 40.08 L 261.22 64.07" class="s1" opacity="0.59"/><path d="M 311.46 47.24 L 305.30 70.44" class="s1" opacity="0.77"/><path d="M 367.78 71.17 L 355.36 91.71" class="s1" opacity="0.74"/><path d="M 411.93 106.53 L 394.60 123.14" class="s1" opacity="0.58"/><path d="M 444.17 149.95 L 423.26 161.73" class="s1" opacity="0.67"/><path d="M 466.22 206.36 L 442.86 211.87" class="s1" opacity="0.79"/>
    <circle cx="469.22" cy="298.98" r="5" fill="#f3a6c6" opacity="0.61"/><circle cx="82.34" cy="179.29" r="6" fill="#f3a6c6" opacity="0.63"/><circle cx="72.09" cy="287.68" r="5" fill="#f3a6c6" opacity="0.66"/><circle cx="68.49" cy="202.91" r="5" fill="#f3a6c6" opacity="0.79"/><circle cx="361.49" cy="380.51" r="5" fill="#f3a6c6" opacity="0.83"/><circle cx="182.10" cy="111.37" r="5" fill="#f3a6c6" opacity="0.65"/><circle cx="176.02" cy="385.91" r="6" fill="#f3a6c6" opacity="0.82"/><circle cx="194.53" cy="59.20" r="6" fill="#f3a6c6" opacity="0.74"/>
    <path d="M 256 188 L 256 324" class="s1" opacity="0.85"/><path d="M 188 256 L 324 256" class="s1" opacity="0.85"/><circle cx="256" cy="256" r="84" class="s2" opacity="0.72"/><path d="M 212 212 Q 256 180 300 212" class="s2" opacity="0.6"/>
  </g>
</svg>
