<svg xmlns="http://www.w3.org/2000/svg" width="512" height="512" viewBox="0 0 512 512">
  <defs>
    <filter id="glow" x="-50%" y="-50%" width="200%" height="200%">
      <feGaussianBlur stdDeviation="4" result="blur"/>
      <feMerge>
        <feMergeNode in="blur"/>
        <feMergeNode in="SourceGraphic"/>
      </feMerge>
    </filter>
    <style>
      .s1 { stroke: #f3a6c6; stroke-width: 8; stroke-linecap: round; stroke-linejoin: round; filter:url(#glow); }
      .s2 { stroke: #d8b45b; stroke-width: 6; stroke-linecap: round; stroke-linejoin: round; filter:url(#glow); }
    </style>
  </defs>
  <g fill="none">
        <circle cx="256" cy="256" r="216" class="s1" /><circle cx="256" cy="256" r="178" class="s1" opacity="0.90"/><circle cx="256" cy="256" r="121" class="s2" opacity="0.85"/>
    <path d="M 472.00 254.66 L 448.00 254.80" class="s1" opacity="0.79"/><path d="M 463.94 314.47 L 440.83 307.97" class="s1" opacity="0.55"/><path d="M 442.68 364.66 L 421.94 352.58" class="s1" opacity="0.58"/><path d="M 412.84 404.52 L 395.41 388.01" class="s1" opacity="0.75"/><path d="M 358.49 446.14 L 347.10 425.01" class="s1" opacity="0.67"/><path d="M 310.15 465.10 L 304.13 441.87" class="s1" opacity="0.57"/><path d="M 261.31 471.93 L 260.72 447.94" class="s1" opacity="0.61"/><path d="M 205.50 466.01 L 211.11 442.68" class="s1" opacity="0.74"/><path d="M 151.84 445.22 L 163.41 424.20" class="s1" opacity="0.66"/><path d="M 107.41 412.77 L 123.92 395.35" class="s1" opacity="0.59"/><path d="M 69.98 365.78 L 90.64 353.58" class="s1" opacity="0.67"/><path d="M 48.06 314.47 L 71.17 307.97" class="s1" opacity="0.68"/><path d="M 40.00 254.66 L 64.00 254.81" class="s1" opacity="0.58"/><path d="M 47.56 199.36 L 70.72 205.65" class="s1" opacity="0.57"/><path d="M 69.96 146.26 L 90.63 158.45" class="s1" opacity="0.74"/><path d="M 107.32 99.32 L 123.84 116.73" class="s1" opacity="0.76"/><path d="M 149.01 68.36 L 160.90 89.21" class="s1" opacity="0.78"/><path d="M 202.59 46.71 L 208.52 69.96" class="s1" opacity="0.71"/><path d="M 250.24 40.08 L 250.88 64.07" class="s1" opacity="0.55"/><path d="M 308.86 46.57 L 302.98 69.84" class="s1" opacity="0.77"/><path d="M 368.46 71.59 L 355.97 92.08" class="s1" opacity="0.75"/><path d="M 408.60 103.13 L 391.64 120.11" class="s1" opacity="0.59"/><path d="M 442.24 146.58 L 421.54 158.74" class="s1" opacity="0.78"/><path d="M 463.74 196.83 L 440.66 203.40" class="s1" opacity="0.76"/>
    <circle cx="324.77" cy="110.90" r="5" fill="#f3a6c6" opacity="0.87"/><circle cx="47.90" cy="289.64" r="6" fill="#f3a6c6" opacity="0.75"/><circle cx="101.24" cy="223.44" r="6" fill="#f3a6c6" opacity="0.86"/><circle cx="382.21" cy="341.17" r="6" fill="#f3a6c6" opacity="0.80"/><circle cx="203.35" cy="101.61" r="5" fill="#f3a6c6" opacity="0.75"/><circle cx="130.56" cy="155.17" r="6" fill="#f3a6c6" opacity="0.71"/><circle cx="47.49" cy="307.89" r="5" fill="#f3a6c6" opacity="0.66"/><circle cx="410.49" cy="404.04" r="5" fill="#f3a6c6" opacity="0.74"/>
    <circle cx="256" cy="256" r="92" class="s1" opacity="0.72"/><circle cx="256" cy="256" r="48" class="s2" opacity="0.82"/><path d="M 256 140 L 256 196" class="s1" opacity="0.75"/><path d="M 256 316 L 256 372" class="s1" opacity="0.75"/><path d="M 140 256 L 196 256" class="s1" opacity="0.75"/><path d="M 316 256 L 372 256" class="s1" opacity="0.75"/><circle cx="256" cy="256" r="10" fill="#d8b45b" opacity="0.9"/>
  </g>
</svg>
