<svg xmlns="http://www.w3.org/2000/svg" width="512" height="512" viewBox="0 0 512 512">
  <defs>
    <filter id="glow" x="-50%" y="-50%" width="200%" height="200%">
      <feGaussianBlur stdDeviation="4" result="blur"/>
      <feMerge>
        <feMergeNode in="blur"/>
        <feMergeNode in="SourceGraphic"/>
      </feMerge>
    </filter>
    <style>
      .s1 { stroke: #f3a6c6; stroke-width: 8; stroke-linecap: round; stroke-linejoin: round; filter:url(#glow); }
      .s2 { stroke: #d8b45b; stroke-width: 6; stroke-linecap: round; stroke-linejoin: round; filter:url(#glow); }
    </style>
  </defs>
  <g fill="none">
        <circle cx="256" cy="256" r="216" class="s1" /><circle cx="256" cy="256" r="178" class="s1" opacity="0.90"/><circle cx="256" cy="256" r="121" class="s2" opacity="0.85"/>
    <path d="M 471.93 250.39 L 447.94 251.01" class="s1" opacity="0.62"/><path d="M 466.21 305.67 L 442.86 300.15" class="s1" opacity="0.61"/><path d="M 441.40 366.82 L 420.80 354.51" class="s1" opacity="0.71"/><path d="M 409.01 408.46 L 392.01 391.52" class="s1" opacity="0.73"/><path d="M 364.55 442.74 L 352.49 421.99" class="s1" opacity="0.76"/><path d="M 310.53 465.00 L 304.47 441.78" class="s1" opacity="0.58"/><path d="M 255.14 472.00 L 255.23 448.00" class="s1" opacity="0.66"/><path d="M 199.65 464.52 L 205.91 441.35" class="s1" opacity="0.59"/><path d="M 145.82 441.78 L 158.06 421.14" class="s1" opacity="0.59"/><path d="M 105.11 410.56 L 121.88 393.39" class="s1" opacity="0.60"/><path d="M 70.47 366.61 L 91.08 354.32" class="s1" opacity="0.59"/><path d="M 46.53 308.73 L 69.81 302.87" class="s1" opacity="0.71"/><path d="M 40.09 262.08 L 64.08 261.41" class="s1" opacity="0.69"/><path d="M 46.01 205.39 L 69.34 211.02" class="s1" opacity="0.70"/><path d="M 68.34 149.04 L 89.19 160.93" class="s1" opacity="0.68"/><path d="M 105.68 100.89 L 122.38 118.12" class="s1" opacity="0.74"/><path d="M 150.06 67.77 L 161.83 88.68" class="s1" opacity="0.61"/><path d="M 195.04 48.78 L 201.81 71.81" class="s1" opacity="0.69"/><path d="M 256.45 40.00 L 256.40 64.00" class="s1" opacity="0.77"/><path d="M 316.67 48.69 L 309.93 71.73" class="s1" opacity="0.59"/><path d="M 363.00 68.37 L 351.11 89.21" class="s1" opacity="0.72"/><path d="M 407.99 102.52 L 391.10 119.58" class="s1" opacity="0.78"/><path d="M 439.83 142.59 L 419.40 155.19" class="s1" opacity="0.64"/><path d="M 465.75 204.40 L 442.44 210.13" class="s1" opacity="0.78"/>
    <circle cx="119.02" cy="159.47" r="5" fill="#f3a6c6" opacity="0.73"/><circle cx="47.75" cy="217.62" r="5" fill="#f3a6c6" opacity="0.63"/><circle cx="103.75" cy="330.40" r="5" fill="#f3a6c6" opacity="0.77"/><circle cx="397.16" cy="98.16" r="5" fill="#f3a6c6" opacity="0.79"/><circle cx="194.88" cy="457.86" r="5" fill="#f3a6c6" opacity="0.87"/><circle cx="230.16" cy="422.03" r="5" fill="#f3a6c6" opacity="0.82"/><circle cx="389.48" cy="337.28" r="6" fill="#f3a6c6" opacity="0.67"/><circle cx="286.75" cy="54.00" r="5" fill="#f3a6c6" opacity="0.76"/>
    <path d="M 176 170 Q 256 120 336 170" class="s2" opacity="0.85"/><path d="M 176 342 Q 256 392 336 342" class="s2" opacity="0.85"/><path d="M 176 170 L 176 342" class="s1" opacity="0.75"/><path d="M 336 170 L 336 342" class="s1" opacity="0.75"/><path d="M 238 206 Q 196 256 238 306 Q 280 356 322 306 Q 364 256 322 206 Q 280 156 238 206 Z" class="s2" opacity="0.78"/><path d="M 256 206 L 256 306" class="s1" opacity="0.72"/><circle cx="256" cy="256" r="18" fill="#d8b45b" opacity="0.85"/>
  </g>
</svg>
