<svg xmlns="http://www.w3.org/2000/svg" width="512" height="512" viewBox="0 0 512 512">
  <defs>
    <filter id="glow" x="-50%" y="-50%" width="200%" height="200%">
      <feGaussianBlur stdDeviation="4" result="blur"/>
      <feMerge>
        <feMergeNode in="blur"/>
        <feMergeNode in="SourceGraphic"/>
      </feMerge>
    </filter>
    <style>
      .s1 { stroke: #f3a6c6; stroke-width: 8; stroke-linecap: round; stroke-linejoin: round; filter:url(#glow); }
      .s2 { stroke: #d8b45b; stroke-width: 6; stroke-linecap: round; stroke-linejoin: round; filter:url(#glow); }
    </style>
  </defs>
  <g fill="none">
        <circle cx="256" cy="256" r="216" class="s1" /><circle cx="256" cy="256" r="178" class="s1" opacity="0.90"/><circle cx="256" cy="256" r="121" class="s2" opacity="0.85"/>
    <path d="M 472.00 256.74 L 448.00 256.66" class="s1" opacity="0.55"/><path d="M 463.00 317.71 L 440.00 310.85" class="s1" opacity="0.61"/><path d="M 442.13 365.59 L 421.45 353.42" class="s1" opacity="0.59"/><path d="M 409.96 407.50 L 392.86 390.66" class="s1" opacity="0.72"/><path d="M 359.15 445.78 L 347.69 424.69" class="s1" opacity="0.62"/><path d="M 315.62 463.61 L 308.99 440.54" class="s1" opacity="0.56"/><path d="M 256.11 472.00 L 256.10 448.00" class="s1" opacity="0.62"/><path d="M 206.02 466.14 L 211.58 442.79" class="s1" opacity="0.57"/><path d="M 147.26 442.63 L 159.34 421.90" class="s1" opacity="0.70"/><path d="M 101.86 407.31 L 118.98 390.50" class="s1" opacity="0.73"/><path d="M 70.37 366.44 L 90.99 354.17" class="s1" opacity="0.57"/><path d="M 46.70 309.37 L 69.95 303.44" class="s1" opacity="0.69"/><path d="M 40.00 254.77 L 64.00 254.91" class="s1" opacity="0.55"/><path d="M 46.08 205.09 L 69.41 210.75" class="s1" opacity="0.73"/><path d="M 66.56 152.22 L 87.61 163.75" class="s1" opacity="0.64"/><path d="M 105.05 101.50 L 121.82 118.67" class="s1" opacity="0.68"/><path d="M 150.55 67.49 L 162.27 88.43" class="s1" opacity="0.54"/><path d="M 200.57 47.23 L 206.73 70.43" class="s1" opacity="0.61"/><path d="M 258.36 40.01 L 258.10 64.01" class="s1" opacity="0.60"/><path d="M 316.79 48.73 L 310.03 71.76" class="s1" opacity="0.63"/><path d="M 360.75 67.10 L 349.11 88.09" class="s1" opacity="0.68"/><path d="M 405.27 99.88 L 388.69 117.23" class="s1" opacity="0.74"/><path d="M 440.03 142.92 L 419.59 155.48" class="s1" opacity="0.69"/><path d="M 465.40 203.00 L 442.13 208.89" class="s1" opacity="0.62"/>
    <circle cx="339.32" cy="456.74" r="6" fill="#f3a6c6" opacity="0.69"/><circle cx="101.92" cy="254.60" r="6" fill="#f3a6c6" opacity="0.84"/><circle cx="435.44" cy="144.99" r="6" fill="#f3a6c6" opacity="0.68"/><circle cx="326.06" cy="385.18" r="5" fill="#f3a6c6" opacity="0.60"/><circle cx="256.60" cy="446.13" r="6" fill="#f3a6c6" opacity="0.58"/><circle cx="111.67" cy="368.63" r="6" fill="#f3a6c6" opacity="0.72"/><circle cx="106.14" cy="199.93" r="6" fill="#f3a6c6" opacity="0.68"/><circle cx="114.41" cy="370.54" r="5" fill="#f3a6c6" opacity="0.88"/>
    <path d="M 204 176 L 292 256 L 204 336" class="s1" opacity="0.9"/><path d="M 292 256 L 156 256" class="s2" opacity="0.75"/>
  </g>
</svg>
