<svg xmlns="http://www.w3.org/2000/svg" width="512" height="512" viewBox="0 0 512 512">
  <defs>
    <filter id="glow" x="-50%" y="-50%" width="200%" height="200%">
      <feGaussianBlur stdDeviation="4" result="blur"/>
      <feMerge>
        <feMergeNode in="blur"/>
        <feMergeNode in="SourceGraphic"/>
      </feMerge>
    </filter>
    <style>
      .s1 { stroke: #f3a6c6; stroke-width: 8; stroke-linecap: round; stroke-linejoin: round; filter:url(#glow); }
      .s2 { stroke: #d8b45b; stroke-width: 6; stroke-linecap: round; stroke-linejoin: round; filter:url(#glow); }
    </style>
  </defs>
  <g fill="none">
        <circle cx="256" cy="256" r="216" class="s1" /><circle cx="256" cy="256" r="178" class="s1" opacity="0.90"/><circle cx="256" cy="256" r="121" class="s2" opacity="0.85"/>
    <path d="M 471.93 250.70 L 447.94 251.29" class="s1" opacity="0.75"/><path d="M 464.30 313.16 L 441.15 306.81" class="s1" opacity="0.59"/><path d="M 441.22 367.12 L 420.64 354.78" class="s1" opacity="0.69"/><path d="M 405.70 411.71 L 389.07 394.41" class="s1" opacity="0.69"/><path d="M 361.48 444.49 L 349.76 423.55" class="s1" opacity="0.74"/><path d="M 313.85 464.11 L 307.43 440.98" class="s1" opacity="0.56"/><path d="M 250.84 471.94 L 251.42 447.95" class="s1" opacity="0.57"/><path d="M 199.38 464.45 L 205.67 441.29" class="s1" opacity="0.79"/><path d="M 149.68 444.02 L 161.50 423.13" class="s1" opacity="0.61"/><path d="M 104.35 409.81 L 121.20 392.72" class="s1" opacity="0.59"/><path d="M 67.34 361.18 L 88.30 349.50" class="s1" opacity="0.62"/><path d="M 48.86 317.23 L 71.88 310.43" class="s1" opacity="0.69"/><path d="M 40.02 259.12 L 64.02 258.77" class="s1" opacity="0.59"/><path d="M 45.83 206.17 L 69.18 211.70" class="s1" opacity="0.75"/><path d="M 68.15 149.38 L 89.02 161.22" class="s1" opacity="0.69"/><path d="M 103.09 103.44 L 120.08 120.39" class="s1" opacity="0.76"/><path d="M 143.18 71.81 L 155.72 92.27" class="s1" opacity="0.70"/><path d="M 204.23 46.29 L 209.99 69.60" class="s1" opacity="0.61"/><path d="M 255.14 40.00 L 255.24 64.00" class="s1" opacity="0.62"/><path d="M 309.70 46.78 L 303.73 70.03" class="s1" opacity="0.78"/><path d="M 360.94 67.20 L 349.28 88.18" class="s1" opacity="0.73"/><path d="M 404.50 99.15 L 388.00 116.57" class="s1" opacity="0.74"/><path d="M 440.28 143.33 L 419.81 155.85" class="s1" opacity="0.74"/><path d="M 463.11 194.68 L 440.10 201.49" class="s1" opacity="0.59"/>
    <circle cx="434.76" cy="216.28" r="6" fill="#f3a6c6" opacity="0.72"/><circle cx="309.47" cy="388.63" r="6" fill="#f3a6c6" opacity="0.64"/><circle cx="426.99" cy="241.59" r="5" fill="#f3a6c6" opacity="0.78"/><circle cx="73.08" cy="200.55" r="5" fill="#f3a6c6" opacity="0.73"/><circle cx="458.00" cy="326.98" r="5" fill="#f3a6c6" opacity="0.84"/><circle cx="418.62" cy="205.86" r="6" fill="#f3a6c6" opacity="0.67"/><circle cx="197.14" cy="58.31" r="6" fill="#f3a6c6" opacity="0.81"/><circle cx="218.85" cy="402.52" r="5" fill="#f3a6c6" opacity="0.81"/>
    <path d="M 216 250 Q 256 210 296 250" class="s2" opacity="0.88"/><path d="M 216 250 L 216 330 Q 256 360 296 330 L 296 250" class="s1" opacity="0.78"/><path d="M 216 250 Q 200 230 216 210 Q 240 176 270 184" class="s2" opacity="0.72"/><path d="M 270 184 Q 300 192 304 220" class="s2" opacity="0.72"/><circle cx="256" cy="256" r="72" class="s1" opacity="0.62"/><circle cx="256" cy="292" r="14" fill="#d8b45b" opacity="0.85"/>
  </g>
</svg>
