<svg xmlns="http://www.w3.org/2000/svg" width="512" height="512" viewBox="0 0 512 512">
  <defs>
    <filter id="glow" x="-50%" y="-50%" width="200%" height="200%">
      <feGaussianBlur stdDeviation="4" result="blur"/>
      <feMerge>
        <feMergeNode in="blur"/>
        <feMergeNode in="SourceGraphic"/>
      </feMerge>
    </filter>
    <style>
      .s1 { stroke: #f3a6c6; stroke-width: 8; stroke-linecap: round; stroke-linejoin: round; filter:url(#glow); }
      .s2 { stroke: #d8b45b; stroke-width: 6; stroke-linecap: round; stroke-linejoin: round; filter:url(#glow); }
    </style>
  </defs>
  <g fill="none">
        <circle cx="256" cy="256" r="216" class="s1" /><circle cx="256" cy="256" r="178" class="s1" opacity="0.90"/><circle cx="256" cy="256" r="121" class="s2" opacity="0.85"/>
    <path d="M 472.00 255.15 L 448.00 255.24" class="s1" opacity="0.72"/><path d="M 464.52 312.36 L 441.35 306.10" class="s1" opacity="0.67"/><path d="M 440.90 367.67 L 420.35 355.26" class="s1" opacity="0.60"/><path d="M 404.31 413.03 L 387.83 395.58" class="s1" opacity="0.67"/><path d="M 368.47 440.41 L 355.97 419.92" class="s1" opacity="0.73"/><path d="M 315.30 463.70 L 308.71 440.62" class="s1" opacity="0.79"/><path d="M 253.62 471.99 L 253.89 447.99" class="s1" opacity="0.59"/><path d="M 194.32 463.01 L 201.18 440.01" class="s1" opacity="0.62"/><path d="M 142.95 440.05 L 155.51 419.60" class="s1" opacity="0.54"/><path d="M 105.13 410.57 L 121.89 393.40" class="s1" opacity="0.70"/><path d="M 70.40 366.49 L 91.02 354.22" class="s1" opacity="0.62"/><path d="M 48.75 316.85 L 71.77 310.08" class="s1" opacity="0.69"/><path d="M 40.05 251.51 L 64.04 252.00" class="s1" opacity="0.62"/><path d="M 47.95 197.94 L 71.07 204.39" class="s1" opacity="0.67"/><path d="M 70.24 145.77 L 90.88 158.02" class="s1" opacity="0.79"/><path d="M 103.61 102.92 L 120.54 119.93" class="s1" opacity="0.63"/><path d="M 147.75 69.08 L 159.78 89.85" class="s1" opacity="0.72"/><path d="M 206.36 45.78 L 211.87 69.14" class="s1" opacity="0.79"/><path d="M 253.45 40.02 L 253.73 64.01" class="s1" opacity="0.56"/><path d="M 317.49 48.94 L 310.66 71.94" class="s1" opacity="0.59"/><path d="M 366.03 70.12 L 353.80 90.78" class="s1" opacity="0.58"/><path d="M 408.75 103.28 L 391.78 120.25" class="s1" opacity="0.72"/><path d="M 445.93 153.12 L 424.82 164.55" class="s1" opacity="0.63"/><path d="M 464.39 199.15 L 441.23 205.47" class="s1" opacity="0.74"/>
    <circle cx="372.09" cy="385.82" r="6" fill="#f3a6c6" opacity="0.60"/><circle cx="309.42" cy="65.74" r="5" fill="#f3a6c6" opacity="0.76"/><circle cx="280.97" cy="454.91" r="5" fill="#f3a6c6" opacity="0.60"/><circle cx="239.00" cy="449.38" r="6" fill="#f3a6c6" opacity="0.70"/><circle cx="322.37" cy="413.06" r="6" fill="#f3a6c6" opacity="0.87"/><circle cx="411.94" cy="202.88" r="6" fill="#f3a6c6" opacity="0.68"/><circle cx="352.11" cy="417.76" r="6" fill="#f3a6c6" opacity="0.79"/><circle cx="74.28" cy="325.02" r="6" fill="#f3a6c6" opacity="0.75"/>
    <path d="M 196 256 L 316 256" class="s1" opacity="0.9"/><circle cx="256" cy="256" r="84" class="s2" opacity="0.72"/><path d="M 220 220 Q 256 198 292 220" class="s2" opacity="0.6"/>
  </g>
</svg>
