<svg xmlns="http://www.w3.org/2000/svg" width="512" height="512" viewBox="0 0 512 512">
  <defs>
    <filter id="glow" x="-50%" y="-50%" width="200%" height="200%">
      <feGaussianBlur stdDeviation="4" result="blur"/>
      <feMerge>
        <feMergeNode in="blur"/>
        <feMergeNode in="SourceGraphic"/>
      </feMerge>
    </filter>
    <style>
      .s1 { stroke: #f3a6c6; stroke-width: 8; stroke-linecap: round; stroke-linejoin: round; filter:url(#glow); }
      .s2 { stroke: #d8b45b; stroke-width: 6; stroke-linecap: round; stroke-linejoin: round; filter:url(#glow); }
    </style>
  </defs>
  <g fill="none">
        <circle cx="256" cy="256" r="216" class="s1" /><circle cx="256" cy="256" r="178" class="s1" opacity="0.90"/><circle cx="256" cy="256" r="121" class="s2" opacity="0.85"/>
    <path d="M 471.91 249.63 L 447.92 250.34" class="s1" opacity="0.62"/><path d="M 463.83 314.85 L 440.74 308.31" class="s1" opacity="0.75"/><path d="M 440.44 368.41 L 419.95 355.92" class="s1" opacity="0.78"/><path d="M 411.60 405.82 L 394.31 389.17" class="s1" opacity="0.61"/><path d="M 363.70 443.24 L 351.73 422.43" class="s1" opacity="0.70"/><path d="M 315.74 463.57 L 309.10 440.51" class="s1" opacity="0.73"/><path d="M 258.92 471.98 L 258.60 447.98" class="s1" opacity="0.71"/><path d="M 198.29 464.15 L 204.70 441.02" class="s1" opacity="0.62"/><path d="M 148.85 443.55 L 160.75 422.71" class="s1" opacity="0.71"/><path d="M 102.78 408.25 L 119.80 391.33" class="s1" opacity="0.62"/><path d="M 66.16 359.04 L 87.26 347.59" class="s1" opacity="0.63"/><path d="M 47.99 314.20 L 71.10 307.73" class="s1" opacity="0.57"/><path d="M 40.08 250.19 L 64.07 250.84" class="s1" opacity="0.72"/><path d="M 47.93 198.02 L 71.05 204.46" class="s1" opacity="0.67"/><path d="M 66.96 151.51 L 87.96 163.12" class="s1" opacity="0.54"/><path d="M 103.81 102.72 L 120.72 119.75" class="s1" opacity="0.75"/><path d="M 153.55 65.84 L 164.93 86.97" class="s1" opacity="0.56"/><path d="M 194.66 48.89 L 201.48 71.90" class="s1" opacity="0.56"/><path d="M 251.52 40.05 L 252.01 64.04" class="s1" opacity="0.73"/><path d="M 314.10 47.96 L 307.64 71.08" class="s1" opacity="0.74"/><path d="M 362.72 68.21 L 350.86 89.07" class="s1" opacity="0.58"/><path d="M 412.06 106.66 L 394.72 123.26" class="s1" opacity="0.79"/><path d="M 440.54 143.74 L 420.03 156.22" class="s1" opacity="0.55"/><path d="M 463.27 195.21 L 440.24 201.97" class="s1" opacity="0.62"/>
    <circle cx="332.17" cy="424.95" r="6" fill="#f3a6c6" opacity="0.74"/><circle cx="213.84" cy="60.97" r="5" fill="#f3a6c6" opacity="0.64"/><circle cx="77.58" cy="176.26" r="5" fill="#f3a6c6" opacity="0.83"/><circle cx="441.89" cy="198.36" r="6" fill="#f3a6c6" opacity="0.65"/><circle cx="236.60" cy="98.17" r="5" fill="#f3a6c6" opacity="0.62"/><circle cx="380.63" cy="390.14" r="5" fill="#f3a6c6" opacity="0.69"/><circle cx="458.05" cy="196.46" r="5" fill="#f3a6c6" opacity="0.72"/><circle cx="362.91" cy="415.15" r="5" fill="#f3a6c6" opacity="0.77"/>
    <path d="M 256 150 L 342 256 L 256 362 L 170 256 Z" class="s1" opacity="0.85"/><path d="M 210 256 Q 256 222 302 256 Q 256 290 210 256 Z" class="s2" opacity="0.82"/><circle cx="256" cy="256" r="12" fill="#d8b45b" opacity="0.9"/>
  </g>
</svg>
