<svg xmlns="http://www.w3.org/2000/svg" width="512" height="512" viewBox="0 0 512 512">
  <defs>
    <filter id="glow" x="-50%" y="-50%" width="200%" height="200%">
      <feGaussianBlur stdDeviation="4" result="blur"/>
      <feMerge>
        <feMergeNode in="blur"/>
        <feMergeNode in="SourceGraphic"/>
      </feMerge>
    </filter>
    <style>
      .s1 { stroke: #f3a6c6; stroke-width: 8; stroke-linecap: round; stroke-linejoin: round; filter:url(#glow); }
      .s2 { stroke: #d8b45b; stroke-width: 6; stroke-linecap: round; stroke-linejoin: round; filter:url(#glow); }
    </style>
  </defs>
  <g fill="none">
        <circle cx="256" cy="256" r="216" class="s1" /><circle cx="256" cy="256" r="178" class="s1" opacity="0.90"/><circle cx="256" cy="256" r="121" class="s2" opacity="0.85"/>
    <path d="M 472.00 256.84 L 448.00 256.75" class="s1" opacity="0.73"/><path d="M 466.16 305.89 L 442.81 300.34" class="s1" opacity="0.76"/><path d="M 442.20 365.48 L 421.51 353.31" class="s1" opacity="0.70"/><path d="M 405.54 411.87 L 388.92 394.55" class="s1" opacity="0.63"/><path d="M 360.62 444.97 L 349.00 423.97" class="s1" opacity="0.71"/><path d="M 316.50 463.36 L 309.77 440.32" class="s1" opacity="0.72"/><path d="M 254.75 472.00 L 254.89 448.00" class="s1" opacity="0.75"/><path d="M 195.96 463.49 L 202.63 440.43" class="s1" opacity="0.71"/><path d="M 146.78 442.35 L 158.91 421.65" class="s1" opacity="0.77"/><path d="M 106.24 411.66 L 122.88 394.36" class="s1" opacity="0.58"/><path d="M 67.95 362.27 L 88.84 350.46" class="s1" opacity="0.71"/><path d="M 45.88 306.07 L 69.23 300.51" class="s1" opacity="0.72"/><path d="M 40.00 255.49 L 64.00 255.54" class="s1" opacity="0.77"/><path d="M 46.17 204.76 L 69.48 210.45" class="s1" opacity="0.60"/><path d="M 72.12 142.67 L 92.55 155.26" class="s1" opacity="0.72"/><path d="M 104.52 102.02 L 121.36 119.12" class="s1" opacity="0.67"/><path d="M 143.14 71.83 L 155.68 92.29" class="s1" opacity="0.64"/><path d="M 196.52 48.35 L 203.13 71.42" class="s1" opacity="0.60"/><path d="M 255.65 40.00 L 255.69 64.00" class="s1" opacity="0.57"/><path d="M 315.88 48.47 L 309.23 71.53" class="s1" opacity="0.58"/><path d="M 358.37 65.80 L 347.00 86.93" class="s1" opacity="0.67"/><path d="M 406.59 101.15 L 389.86 118.35" class="s1" opacity="0.60"/><path d="M 444.50 150.54 L 423.56 162.26" class="s1" opacity="0.70"/><path d="M 465.77 204.48 L 442.46 210.21" class="s1" opacity="0.78"/>
    <circle cx="108.79" cy="207.09" r="6" fill="#f3a6c6" opacity="0.63"/><circle cx="454.26" cy="181.24" r="6" fill="#f3a6c6" opacity="0.67"/><circle cx="80.16" cy="349.92" r="5" fill="#f3a6c6" opacity="0.63"/><circle cx="208.93" cy="399.73" r="5" fill="#f3a6c6" opacity="0.63"/><circle cx="109.75" cy="169.70" r="6" fill="#f3a6c6" opacity="0.78"/><circle cx="104.77" cy="190.99" r="6" fill="#f3a6c6" opacity="0.83"/><circle cx="106.33" cy="101.79" r="6" fill="#f3a6c6" opacity="0.60"/><circle cx="426.00" cy="367.43" r="6" fill="#f3a6c6" opacity="0.68"/>
    <path d="M 256 176 L 256 308" class="s1" opacity="0.85"/><path d="M 216 214 L 256 176 L 296 214" class="s1" opacity="0.85"/><path d="M 196 320 Q 256 360 316 320" class="s2" opacity="0.75"/><path d="M 196 320 L 316 320" class="s2" opacity="0.75"/>
  </g>
</svg>
